<?xml version="1.0" encoding="UTF-8" standalone="no"?>
<!-- Created with Inkscape (http://www.inkscape.org/) -->

<svg
   width="98.011902mm"
   height="91.03466mm"
   viewBox="0 0 98.011902 91.03466"
   version="1.1"
   id="svg1"
   inkscape:version="1.3.2 (091e20e, 2023-11-25)"
   sodipodi:docname="run-dvm-white-path.svg"
   inkscape:export-filename="run-dvm-white-path.pdf"
   inkscape:export-xdpi="1554.9132"
   inkscape:export-ydpi="1554.9132"
   xmlns:inkscape="http://www.inkscape.org/namespaces/inkscape"
   xmlns:sodipodi="http://sodipodi.sourceforge.net/DTD/sodipodi-0.dtd"
   xmlns="http://www.w3.org/2000/svg"
   xmlns:svg="http://www.w3.org/2000/svg">
  <sodipodi:namedview
     id="namedview1"
     pagecolor="#ffffff"
     bordercolor="#666666"
     borderopacity="1.0"
     inkscape:showpageshadow="2"
     inkscape:pageopacity="0.0"
     inkscape:pagecheckerboard="0"
     inkscape:deskcolor="#d1d1d1"
     inkscape:document-units="mm"
     inkscape:zoom="2.3590524"
     inkscape:cx="164.26087"
     inkscape:cy="149.63636"
     inkscape:window-width="2560"
     inkscape:window-height="1387"
     inkscape:window-x="0"
     inkscape:window-y="25"
     inkscape:window-maximized="0"
     inkscape:current-layer="layer1" />
  <defs
     id="defs1" />
  <g
     inkscape:label="Layer 1"
     inkscape:groupmode="layer"
     id="layer1"
     transform="translate(-102.12917,66.939593)">
    <path
       id="path2"
       d="m 102.29867,-66.939593 h 97.74786 v 9.391651 h -97.74786 v -9.391651"
       style="fill:#e22d40;fill-opacity:1;fill-rule:nonzero;stroke:none;stroke-width:0.0352778" />
    <path
       id="path3"
       d="m 102.29867,14.703068 h 97.74786 v 9.392003 h -97.74786 v -9.392003"
       style="fill:#e22d40;fill-opacity:1;fill-rule:nonzero;stroke:none;stroke-width:0.0352778" />
    <path
       id="path4"
       d="m 155.70095,-55.654937 h 10.21609 v 19.351626 c 0,1.918759 -0.3055,3.730978 -0.9144,5.435248 -0.61101,1.704975 -1.56774,3.19652 -2.87126,4.47287 -1.30351,1.276703 -2.67053,2.172758 -4.1021,2.690636 -1.98896,0.722489 -4.37656,1.084439 -7.16456,1.084439 -1.61326,0 -3.37185,-0.111125 -5.27756,-0.33267 -1.90641,-0.221897 -3.50061,-0.661105 -4.78049,-1.317625 -1.28129,-0.656872 -2.45286,-1.589969 -3.51451,-2.800703 -1.06232,-1.210027 -1.7894,-2.457097 -2.18144,-3.741561 -0.63278,-2.066219 -0.94947,-3.896783 -0.94947,-5.490634 v -19.351626 h 10.21694 v 19.812707 c 0,1.771297 0.50024,3.154539 1.50284,4.150784 1.00118,0.996244 2.39218,1.493661 4.17053,1.493661 1.76248,0 3.14467,-0.490361 4.14726,-1.471789 1.00189,-0.981428 1.50283,-2.372431 1.50283,-4.173362 v -19.812001 h -7e-4"
       style="fill:#ffffff;fill-opacity:1;fill-rule:nonzero;stroke:none;stroke-width:0.0352778" />
    <path
       id="path5"
       d="m 167.46715,-55.858842 h 9.85802 l 12.86439,18.408651 v -18.408651 h 9.95151 v 33.274002 h -9.95151 l -12.79384,-18.269657 v 18.269657 h -9.92857 v -33.274002 0"
       style="fill:#ffffff;fill-opacity:1;fill-rule:nonzero;stroke:none;stroke-width:0.0352778" />
    <path
       id="path6"
       d="M 111.47736,-12.557131 V 5.1809598 h 2.29073 c 1.95336,0 3.34285,-0.2321983 4.16814,-0.6975828 0.82585,-0.4649612 1.47217,-1.276597 1.94027,-2.4355427 0.46758,-1.15947476 0.70186,-3.03706405 0.70186,-5.6365778 0,-3.4389133 -0.52272,-5.7934229 -1.56849,-7.0647985 -1.04567,-1.269648 -2.77897,-1.903589 -5.20044,-1.903589 z m -9.34819,-7.351184 h 13.88854 c 2.7382,0 4.94923,0.398286 6.63459,1.194858 1.68533,0.796925 3.07827,1.941689 4.17932,3.432528 1.09993,1.491192 1.89851,3.226859 2.39392,5.204249 0.4947,1.977884 0.74277,4.0748305 0.74277,6.2892167 0,3.46988721 -0.36837,6.1613349 -1.10356,8.0719794 -0.73681,1.9120557 -1.75863,3.5140197 -3.06528,4.8065976 -1.3075,1.2918013 -2.71103,2.1511333 -4.21034,2.5791583 -2.04981,0.590903 -3.90715,0.88512 -5.57166,0.88512 h -13.8883 v -32.463707"
       style="fill:#ffffff;fill-opacity:1;fill-rule:nonzero;stroke:none;stroke-width:0.0352778" />
    <path
       id="path7"
       d="m 161.29653,-19.942178 h 13.99953 l 5.39785,19.6598827 5.35975,-19.6598827 h 13.99152 v 32.309469 h -8.71819 v -24.639373 l -6.71725,24.639373 h -7.89128 l -6.7049,-24.639373 v 24.639373 h -8.71703 v -32.309469"
       style="fill:#ffffff;fill-opacity:1;fill-rule:nonzero;stroke:none;stroke-width:0.0352777" />
    <path
       id="path7-0"
       d="m 138.0834,-19.685101 6.441,19.6598828 6.39553,-19.6598828 h 8.52221 c -3.06197,10.845649 -6.74781,21.5585275 -10.24516,32.309469 h -9.4163 C 136.25475,1.8781863 132.69763,-8.8567716 129.55164,-19.685101"
       style="fill:#ffffff;fill-opacity:1;fill-rule:nonzero;stroke:none;stroke-width:0.038536"
       sodipodi:nodetypes="ccccccc" />
    <path
       id="path9"
       d="m 112.47618,-42.432825 h 4.28748 c 0.46369,0 1.36151,-0.149578 2.69364,-0.450497 0.67387,-0.135114 1.22301,-0.479778 1.64994,-1.035403 0.42651,-0.554214 0.63969,-1.192389 0.63969,-1.912408 0,-1.065742 -0.33694,-1.882423 -1.00968,-2.453217 -0.6743,-0.570442 -1.93891,-0.855134 -3.79416,-0.855134 h -4.46734 v 6.706659 z m -10.2143,19.621501 v -32.988604 h 16.94918 c 3.14261,0 5.54454,0.270227 7.20605,0.81033 1.6612,0.53975 3.00023,1.541639 4.01793,3.00355 1.01808,1.462617 1.52728,3.243792 1.52728,5.344584 0,1.830211 -0.38929,3.409245 -1.16858,4.7371 -0.77819,1.327856 -1.84933,2.404181 -3.21151,3.228975 -0.86886,0.524934 -2.05878,0.959909 -3.57145,1.304573 1.21087,0.406047 2.09377,0.811389 2.64678,1.21673 0.37388,0.269875 0.91613,0.848431 1.62638,1.733903 0.71007,0.886531 1.1848,1.569862 1.42459,2.049992 l 4.92485,9.558867 H 123.1422 l -5.43595,-10.080625 c -0.68806,-1.305278 -1.30224,-2.15265 -1.84079,-2.542823 -0.73311,-0.509411 -1.56366,-0.765175 -2.4915,-0.765175 h -0.89778 v 13.390034 h -10.2143 v -0.0014"
       style="fill:#ffffff;fill-opacity:1;fill-rule:nonzero;stroke:none;stroke-width:0.0352778" />
  </g>
</svg>
