<?xml version="1.0" encoding="UTF-8" standalone="no"?>
<svg
   id="Layer_2"
   viewBox="0 0 349.87059 405.33789"
   version="1.1"
   sodipodi:docname="soveng-logo.svg"
   inkscape:version="1.3.2 (091e20e, 2023-11-25)"
   width="349.87061"
   height="405.33789"
   inkscape:export-filename="soveng-logo.pdf"
   inkscape:export-xdpi="356"
   inkscape:export-ydpi="356"
   xmlns:inkscape="http://www.inkscape.org/namespaces/inkscape"
   xmlns:sodipodi="http://sodipodi.sourceforge.net/DTD/sodipodi-0.dtd"
   xmlns="http://www.w3.org/2000/svg"
   xmlns:svg="http://www.w3.org/2000/svg">
  <defs
     id="defs6" />
  <sodipodi:namedview
     id="namedview6"
     pagecolor="#000000"
     bordercolor="#666666"
     borderopacity="1.0"
     inkscape:showpageshadow="2"
     inkscape:pageopacity="0.0"
     inkscape:pagecheckerboard="0"
     inkscape:deskcolor="#d1d1d1"
     inkscape:export-bgcolor="#00000000"
     showguides="true"
     inkscape:zoom="0.472"
     inkscape:cx="174.78814"
     inkscape:cy="250"
     inkscape:window-width="1440"
     inkscape:window-height="847"
     inkscape:window-x="0"
     inkscape:window-y="25"
     inkscape:window-maximized="0"
     inkscape:current-layer="Components" />
  <g
     id="Components"
     transform="translate(-0.2969)">
    <g
       id="_34a764f2-cab5-4527-ab40-a4c3b86022cb_5">
      <rect
         x="22.123699"
         y="357.33801"
         width="305.6232"
         height="17.0637"
         rx="0.81980002"
         ry="0.81980002"
         style="fill:#ffffff;stroke-width:0px"
         id="rect4" />
      <rect
         x="43.965099"
         y="388.2742"
         width="261.9534"
         height="17.0637"
         rx="0.81980002"
         ry="0.81980002"
         style="fill:#ffffff;stroke-width:0px"
         id="rect5" />
      <path
         d="m 348.6712,326.4017 h -26.685 c -0.7088,0 -1.1288,-0.7877 -0.735,-1.3914 18.2581,-27.5381 28.9163,-60.563 28.9163,-96.0029 0,-62.5973 -33.1822,-117.5815 -82.8899,-148.27 -0.5775,-0.3544 -1.3257,0.0263 -1.3782,0.6957 l -1.2338,15.8168 c -0.0263,0.315 0.1181,0.6169 0.3806,0.8005 41.8453,28.5488 69.3703,76.6028 69.3703,130.957 0,36.5426 -12.4302,70.2235 -33.3004,97.0399 -0.1706,0.223 -0.4462,0.3544 -0.7219,0.3544 h -28.5357 c -0.63,0 -1.0632,-0.63 -0.8532,-1.2078 8.4137,-22.4323 17.1687,-45.4417 20.3058,-52.9237 0.21,-0.5249 -0.105,-1.1024 -0.6563,-1.2075 -16.3286,-3.3209 -33.6154,-10.9731 -49.6684,-19.9513 -9.5556,-5.3423 -18.6913,-11.157 -26.9212,-16.7881 -12.7715,-8.7417 -23.3903,-17.0768 -30.1633,-22.629 -3.7803,-3.0975 -6.366,-5.3292 -7.4555,-6.2742 -0.3281,-0.2887 -0.8269,-0.3019 -1.1682,0 -1.0501,0.9059 -3.5177,3.019 -7.1273,5.9329 -6.8386,5.5522 -17.7593,14.0578 -30.9377,22.9966 -8.2956,5.6311 -17.4968,11.4457 -27.1181,16.8143 -15.7642,8.768 -32.6835,16.3285 -48.7102,19.8856 -0.5513,0.1182 -0.8532,0.6826 -0.6432,1.1943 3.124,7.4689 11.879,30.4917 20.3058,52.95 0.2231,0.5778 -0.2101,1.2078 -0.8401,1.2078 H 51.6586 c -0.2887,0 -0.5513,-0.1314 -0.7219,-0.3544 -20.8702,-26.8164 -33.3004,-60.4973 -33.3004,-97.0399 0,-54.3542 27.525,-102.4082 69.3703,-130.9436 0.2625,-0.1839 0.42,-0.4858 0.3938,-0.8008 L 86.1535,81.433 c -0.0526,-0.6694 -0.8007,-1.0501 -1.3783,-0.6957 -49.7078,30.6886 -82.89,85.6728 -82.89,148.2701 0,35.4399 10.6451,68.4648 28.9163,96.0029 0.3938,0.6037 -0.0262,1.3914 -0.735,1.3914 H 1.1895 c -0.4988,0 -0.8926,0.4067 -0.8926,0.8925 v 15.2784 c 0,0.4858 0.3938,0.8928 0.8926,0.8928 h 347.4817 c 0.4988,0 0.9057,-0.407 0.9057,-0.8928 v -15.2784 c 0,-0.4858 -0.4069,-0.8925 -0.9057,-0.8925 z M 190.5668,270.5569 162.753,329.6394 c -0.2363,0.4799 -0.9976,0.32 -0.9976,-0.1968 v -42.6011 c 0,-0.2708 -0.2363,-0.4925 -0.525,-0.4925 h -11.8527 c -0.3806,0 -0.63,-0.357 -0.4857,-0.6767 l 27.8269,-59.0825 c 0.2231,-0.4802 0.9976,-0.32 0.9976,0.1968 v 42.6011 c 0,0.2708 0.2231,0.4922 0.5118,0.4922 h 11.8659 c 0.3806,0 0.63,0.357 0.4725,0.677 z"
         style="fill:#ffffff;stroke-width:0px"
         id="path5" />
      <path
         d="m 290.4484,142.5075 c -2.8761,36.5716 -5.7523,73.1307 -8.6284,109.7024 -0.0585,0.7435 -0.7058,1.3 -1.4498,1.2469 -4.1891,-0.2988 -8.3772,-0.5863 -12.5554,-0.8535 -0.2266,-0.0145 -0.4476,-0.067 -0.6561,-0.1568 -11.2224,-4.8361 -22.4118,-10.9769 -32.7895,-17.4142 -25.2148,-15.6328 -45.6912,-32.933 -50.469,-37.0544 -0.6432,-0.5643 -1.0107,-0.8797 -1.0501,-0.9187 l -5.6395,-5.0202 c -0.7373,-0.6563 -1.8481,-0.6601 -2.5898,-0.009 l -5.6841,4.9898 c -0.0393,0.0263 -0.3019,0.2625 -0.7875,0.6826 -3.3996,2.9139 -17.51,14.7798 -36.3063,27.5906 -4.7516,3.2421 -9.805,6.5498 -15.0685,9.7787 -10.4439,6.4249 -21.6996,12.5921 -32.9882,17.4417 -0.2073,0.089 -0.4269,0.1413 -0.652,0.1562 -3.8522,0.255 -7.714,0.5203 -11.5676,0.7959 -0.6752,0.0483 -1.2613,-0.4563 -1.3143,-1.1311 -2.8856,-36.6925 -5.7713,-73.3724 -8.6569,-110.0648 -0.0591,-0.751 0.5054,-1.4094 1.2566,-1.4656 34.711,-2.5997 69.3742,-4.1228 104.1607,-4.5819 0.6306,-0.008 1.1366,-0.5202 1.1366,-1.1508 v -8.7802 c 0,-0.6435 -0.5342,-1.1648 -1.1777,-1.1585 -22.1859,0.2155 -42.421,1.1525 -64.5122,2.9403 -0.7164,0.058 -1.3582,-0.4932 -1.4146,-1.2098 -0.9629,-12.2407 -1.9253,-22.5186 -2.8754,-34.693 C 97.71,86.4211 97.2637,80.6587 96.8043,74.9097 96.3306,68.8709 95.857,62.8217 95.3836,56.7808 c -0.0849,-1.084 0.7425,-2.0313 1.8271,-2.1073 23.8993,-1.6743 45.8793,-2.6729 69.8487,-2.9955 0.6004,-0.0081 1.0898,-0.496 1.0898,-1.0964 V 1.3265 C 168.1492,0.5939 168.7432,0 169.4758,0 h 13.0981 c 0.7326,0 1.3265,0.5939 1.3265,1.3265 v 5.2334 c 0,0.961 0.7017,1.8027 1.6533,1.9366 18.3973,2.5894 33.1896,-7.859 52.2231,-3.1032 1.1287,0.282 1.2725,1.879 0.2052,2.342 -3.8165,1.6557 -6.6618,4.3627 -11.086,9.3034 -0.381,0.4255 -0.3763,1.0903 0.007,1.5141 5.3625,5.9373 8.4056,9.9606 13.6749,20.1369 0.3666,0.708 -0.2835,1.5359 -1.0481,1.3102 -20.0746,-5.9265 -35.3015,5.5165 -54.5111,2.5457 -0.5853,-0.0905 -1.1178,0.3462 -1.1178,0.9384 v 7.1634 c 0,0.5637 0.4597,1.0219 1.0233,1.0294 24.0075,0.3216 46.0065,1.3205 69.9281,2.9964 1.0845,0.076 1.9121,1.0234 1.8272,2.1073 -0.4735,6.0409 -0.9483,12.0901 -1.4338,18.1289 -0.4463,5.749 -0.8926,11.5114 -1.352,17.2604 -0.9648,12.1997 -1.9296,22.4954 -2.8827,34.7692 -0.0524,0.6749 -0.6565,1.196 -1.3314,1.1431 -22.1332,-1.7341 -42.39,-2.7569 -64.6018,-2.9511 -0.6433,-0.006 -1.1771,0.5159 -1.1771,1.1592 v 8.7808 c 0,0.6306 0.5059,1.1425 1.1365,1.1508 34.7072,0.458 69.3039,1.9752 103.9357,4.5641 0.8824,0.066 1.5453,0.8393 1.4759,1.7214 z"
         style="fill:#ffffff;stroke-width:0px"
         id="path6" />
    </g>
  </g>
</svg>
