<svg width="450" height="450" xmlns="http://www.w3.org/2000/svg"><g transform="translate(49.768 22.331)"><rect x="22.124" y="357.338" width="305.623" height="17.064" rx=".82" ry=".82" style="fill:#fff;stroke-width:0"/><rect x="43.965" y="388.274" width="261.953" height="17.064" rx=".82" ry=".82" style="fill:#fff;stroke-width:0"/><path d="M348.671 326.402h-26.685c-.709 0-1.129-.788-.735-1.392 18.258-27.538 28.917-60.563 28.917-96.003 0-62.597-33.183-117.581-82.89-148.27a.906.906 0 0 0-1.379.696l-1.233 15.817a.885.885 0 0 0 .38.8c41.846 28.55 69.37 76.603 69.37 130.957 0 36.543-12.43 70.224-33.3 97.04a.92.92 0 0 1-.722.355h-28.536a.906.906 0 0 1-.853-1.208c8.414-22.432 17.169-45.442 20.306-52.924a.887.887 0 0 0-.656-1.207c-16.329-3.321-33.616-10.973-49.669-19.952-9.555-5.342-18.69-11.157-26.92-16.788a444.218 444.218 0 0 1-30.164-22.629 343.544 343.544 0 0 1-7.456-6.274.88.88 0 0 0-1.168 0c-1.05.906-3.518 3.02-7.127 5.933a456.785 456.785 0 0 1-30.938 22.997c-8.295 5.63-17.497 11.445-27.118 16.814-15.764 8.768-32.683 16.328-48.71 19.886a.876.876 0 0 0-.643 1.194c3.124 7.469 11.879 30.491 20.305 52.95a.893.893 0 0 1-.84 1.208H51.66a.902.902 0 0 1-.722-.355c-20.87-26.816-33.3-60.497-33.3-97.04 0-54.354 27.524-102.408 69.37-130.943a.897.897 0 0 0 .393-.801l-1.247-15.83a.906.906 0 0 0-1.378-.696c-49.708 30.689-82.89 85.673-82.89 148.27 0 35.44 10.645 68.465 28.916 96.003.394.604-.026 1.392-.735 1.392H1.19a.893.893 0 0 0-.892.892v15.279c0 .485.394.892.892.892h347.482a.905.905 0 0 0 .906-.892v-15.279a.905.905 0 0 0-.906-.892zm-158.104-55.845-27.814 59.082c-.236.48-.998.32-.998-.196v-42.601c0-.271-.236-.493-.525-.493h-11.852c-.38 0-.63-.357-.486-.677l27.827-59.082c.223-.48.997-.32.997.197v42.6a.5.5 0 0 0 .512.493h11.866c.38 0 .63.357.473.677z" style="fill:#fff;stroke-width:0"/><path d="M290.448 142.507 281.82 252.21a1.357 1.357 0 0 1-1.45 1.247c-4.189-.299-8.377-.586-12.555-.854a1.973 1.973 0 0 1-.656-.156c-11.223-4.837-22.412-10.977-32.79-17.415-25.215-15.632-45.691-32.933-50.469-37.054-.643-.564-1.01-.88-1.05-.919l-5.64-5.02a1.955 1.955 0 0 0-2.59-.009l-5.683 4.99c-.04.026-.302.262-.788.682-3.4 2.914-17.51 14.78-36.306 27.591a371.178 371.178 0 0 1-15.069 9.779c-10.443 6.425-21.7 12.592-32.988 17.441a1.98 1.98 0 0 1-.652.157c-3.852.255-7.714.52-11.567.796a1.23 1.23 0 0 1-1.315-1.132L61.595 142.27a1.364 1.364 0 0 1 1.257-1.466c34.711-2.6 69.374-4.123 104.16-4.582a1.15 1.15 0 0 0 1.137-1.15v-8.78c0-.644-.534-1.166-1.177-1.16-22.186.216-42.421 1.153-64.513 2.94a1.326 1.326 0 0 1-1.414-1.209c-.963-12.24-1.925-22.518-2.876-34.693-.459-5.749-.905-11.511-1.365-17.26l-1.42-18.13a1.969 1.969 0 0 1 1.827-2.107c23.899-1.674 45.879-2.672 69.848-2.995.6-.008 1.09-.496 1.09-1.096V1.327c0-.733.594-1.327 1.327-1.327h13.098c.732 0 1.326.594 1.326 1.327V6.56c0 .96.702 1.803 1.654 1.937 18.397 2.589 33.19-7.86 52.223-3.104 1.128.282 1.272 1.88.205 2.342-3.817 1.656-6.662 4.363-11.086 9.304a1.143 1.143 0 0 0 .007 1.514c5.362 5.937 8.406 9.96 13.675 20.137.366.708-.284 1.536-1.048 1.31-20.075-5.927-35.302 5.516-54.511 2.546a.958.958 0 0 0-1.118.938v7.163c0 .564.46 1.022 1.023 1.03 24.008.321 46.007 1.32 69.928 2.996a1.97 1.97 0 0 1 1.827 2.108c-.473 6.04-.948 12.09-1.433 18.128-.447 5.75-.893 11.512-1.352 17.26-.965 12.2-1.93 22.496-2.883 34.77a1.251 1.251 0 0 1-1.331 1.143c-22.134-1.734-42.39-2.757-64.602-2.951a1.167 1.167 0 0 0-1.177 1.16v8.78c0 .63.506 1.143 1.136 1.15a1692.5 1692.5 0 0 1 103.936 4.565c.882.066 1.545.84 1.476 1.721z" style="fill:#fff;stroke-width:0"/></g></svg>